<svg width="100" height="36" viewBox="0 0 100 36" fill="none" xmlns="http://www.w3.org/2000/svg">
<rect x="0.5" y="0.5" width="99" height="35" rx="17.5" fill="#E6FFFA"/>
<rect x="0.5" y="0.5" width="99" height="35" rx="17.5" stroke="#4FD1C5"/>
<path d="M28.9477 21.444L23.7097 21.444L22.8097 24H20.6677L25.1497 11.472H27.5257L32.0077 24H29.8477L28.9477 21.444ZM28.3717 19.77L26.3377 13.956L24.2857 19.77L28.3717 19.77ZM33.2724 18.996C33.2724 18 33.4764 17.118 33.8844 16.35C34.3044 15.582 34.8684 14.988 35.5764 14.568C36.2964 14.136 37.0944 13.92 37.9704 13.92C38.6184 13.92 39.2544 14.064 39.8784 14.352C40.5144 14.628 41.0184 15 41.3904 15.468V10.68H43.4604V24H41.3904V22.506C41.0544 22.986 40.5864 23.382 39.9864 23.694C39.3984 24.006 38.7204 24.162 37.9524 24.162C37.0884 24.162 36.2964 23.946 35.5764 23.514C34.8684 23.07 34.3044 22.458 33.8844 21.678C33.4764 20.886 33.2724 19.992 33.2724 18.996ZM41.3904 19.032C41.3904 18.348 41.2464 17.754 40.9584 17.25C40.6824 16.746 40.3164 16.362 39.8604 16.098C39.4044 15.834 38.9124 15.702 38.3844 15.702C37.8564 15.702 37.3644 15.834 36.9084 16.098C36.4524 16.35 36.0804 16.728 35.7924 17.232C35.5164 17.724 35.3784 18.312 35.3784 18.996C35.3784 19.68 35.5164 20.28 35.7924 20.796C36.0804 21.312 36.4524 21.708 36.9084 21.984C37.3764 22.248 37.8684 22.38 38.3844 22.38C38.9124 22.38 39.4044 22.248 39.8604 21.984C40.3164 21.72 40.6824 21.336 40.9584 20.832C41.2464 20.316 41.3904 19.716 41.3904 19.032ZM58.1617 13.92C58.9417 13.92 59.6377 14.082 60.2497 14.406C60.8737 14.73 61.3597 15.21 61.7077 15.846C62.0677 16.482 62.2477 17.25 62.2477 18.15L62.2477 24H60.2137L60.2137 18.456C60.2137 17.568 59.9917 16.89 59.5477 16.422C59.1037 15.942 58.4977 15.702 57.7297 15.702C56.9617 15.702 56.3497 15.942 55.8937 16.422C55.4497 16.89 55.2277 17.568 55.2277 18.456L55.2277 24H53.1937L53.1937 18.456C53.1937 17.568 52.9717 16.89 52.5277 16.422C52.0837 15.942 51.4777 15.702 50.7097 15.702C49.9417 15.702 49.3297 15.942 48.8737 16.422C48.4297 16.89 48.2077 17.568 48.2077 18.456V24H46.1557V14.082L48.2077 14.082V15.216C48.5437 14.808 48.9697 14.49 49.4857 14.262C50.0017 14.034 50.5537 13.92 51.1417 13.92C51.9337 13.92 52.6417 14.088 53.2657 14.424C53.8897 14.76 54.3697 15.246 54.7057 15.882C55.0057 15.282 55.4737 14.808 56.1097 14.46C56.7457 14.1 57.4297 13.92 58.1617 13.92ZM65.9028 12.768C65.5308 12.768 65.2188 12.642 64.9668 12.39C64.7148 12.138 64.5888 11.826 64.5888 11.454C64.5888 11.082 64.7148 10.77 64.9668 10.518C65.2188 10.266 65.5308 10.14 65.9028 10.14C66.2628 10.14 66.5688 10.266 66.8208 10.518C67.0728 10.77 67.1988 11.082 67.1988 11.454C67.1988 11.826 67.0728 12.138 66.8208 12.39C66.5688 12.642 66.2628 12.768 65.9028 12.768ZM66.9108 14.082V24H64.8588V14.082H66.9108ZM74.6089 13.92C75.3889 13.92 76.0849 14.082 76.6969 14.406C77.3209 14.73 77.8069 15.21 78.1549 15.846C78.5029 16.482 78.6769 17.25 78.6769 18.15V24L76.6429 24V18.456C76.6429 17.568 76.4209 16.89 75.9769 16.422C75.5329 15.942 74.9269 15.702 74.1589 15.702C73.3909 15.702 72.7789 15.942 72.3229 16.422C71.8789 16.89 71.6569 17.568 71.6569 18.456V24H69.6049V14.082L71.6569 14.082V15.216C71.9929 14.808 72.4189 14.49 72.9349 14.262C73.4629 14.034 74.0209 13.92 74.6089 13.92Z" fill="#2C5282"/>
</svg>
