<svg width="153" height="36" viewBox="0 0 153 36" fill="none" xmlns="http://www.w3.org/2000/svg">
<rect x="0.5" y="0.5" width="152" height="35" rx="17.5" fill="#EBF8FF"/>
<rect x="0.5" y="0.5" width="152" height="35" rx="17.5" stroke="#4299E1"/>
<path d="M28.2521 17.574C28.9241 17.694 29.4941 18.048 29.9621 18.636C30.4301 19.224 30.6641 19.89 30.6641 20.634C30.6641 21.27 30.4961 21.846 30.1601 22.362C29.8361 22.866 29.3621 23.268 28.7381 23.568C28.1141 23.856 27.3881 24 26.5601 24H21.5561L21.5561 11.49L26.3261 11.49C27.1781 11.49 27.9101 11.634 28.5221 11.922C29.1341 12.21 29.5961 12.6 29.9081 13.092C30.2201 13.572 30.3761 14.112 30.3761 14.712C30.3761 15.432 30.1841 16.032 29.8001 16.512C29.4161 16.992 28.9001 17.346 28.2521 17.574ZM23.6081 16.746H26.1461C26.8181 16.746 27.3401 16.596 27.7121 16.296C28.0961 15.984 28.2881 15.54 28.2881 14.964C28.2881 14.4 28.0961 13.962 27.7121 13.65C27.3401 13.326 26.8181 13.164 26.1461 13.164L23.6081 13.164L23.6081 16.746ZM26.3801 22.326C27.0761 22.326 27.6221 22.158 28.0181 21.822C28.4141 21.486 28.6121 21.018 28.6121 20.418C28.6121 19.806 28.4021 19.32 27.9821 18.96C27.5621 18.6 27.0041 18.42 26.3081 18.42H23.6081V22.326H26.3801ZM41.9839 18.798C41.9839 19.17 41.9599 19.506 41.9119 19.806H34.3339C34.3939 20.598 34.6879 21.234 35.2159 21.714C35.7439 22.194 36.3919 22.434 37.1599 22.434C38.2639 22.434 39.0439 21.972 39.4999 21.048H41.7139C41.4139 21.96 40.8679 22.71 40.0759 23.298C39.2959 23.874 38.3239 24.162 37.1599 24.162C36.2119 24.162 35.3599 23.952 34.6039 23.532C33.8599 23.1 33.2719 22.5 32.8399 21.732C32.4199 20.952 32.2099 20.052 32.2099 19.032C32.2099 18.012 32.4139 17.118 32.8219 16.35C33.2419 15.57 33.8239 14.97 34.5679 14.55C35.3239 14.13 36.1879 13.92 37.1599 13.92C38.0959 13.92 38.9299 14.124 39.6619 14.532C40.3939 14.94 40.9639 15.516 41.3719 16.26C41.7799 16.992 41.9839 17.838 41.9839 18.798ZM39.8419 18.15C39.8299 17.394 39.5599 16.788 39.0319 16.332C38.5039 15.876 37.8499 15.648 37.0699 15.648C36.3619 15.648 35.7559 15.876 35.2519 16.332C34.7479 16.776 34.4479 17.382 34.3519 18.15H39.8419ZM49.1333 13.92C49.8893 13.92 50.5613 14.082 51.1493 14.406C51.7493 14.73 52.2173 15.21 52.5533 15.846C52.9013 16.482 53.0753 17.25 53.0753 18.15L53.0753 24H51.0413V18.456C51.0413 17.568 50.8193 16.89 50.3753 16.422C49.9313 15.942 49.3253 15.702 48.5573 15.702C47.7893 15.702 47.1773 15.942 46.7213 16.422C46.2773 16.89 46.0553 17.568 46.0553 18.456V24H44.0033V10.68L46.0553 10.68V15.234C46.4033 14.814 46.8413 14.49 47.3693 14.262C47.9093 14.034 48.4973 13.92 49.1333 13.92ZM55.0088 18.996C55.0088 18 55.2128 17.118 55.6208 16.35C56.0408 15.582 56.6048 14.988 57.3128 14.568C58.0328 14.136 58.8248 13.92 59.6888 13.92C60.4688 13.92 61.1468 14.076 61.7228 14.388C62.3108 14.688 62.7788 15.066 63.1268 15.522V14.082H65.1968V24H63.1268V22.524C62.7788 22.992 62.3048 23.382 61.7048 23.694C61.1048 24.006 60.4208 24.162 59.6528 24.162C58.8008 24.162 58.0208 23.946 57.3128 23.514C56.6048 23.07 56.0408 22.458 55.6208 21.678C55.2128 20.886 55.0088 19.992 55.0088 18.996ZM63.1268 19.032C63.1268 18.348 62.9828 17.754 62.6948 17.25C62.4188 16.746 62.0528 16.362 61.5968 16.098C61.1408 15.834 60.6488 15.702 60.1208 15.702C59.5928 15.702 59.1008 15.834 58.6448 16.098C58.1888 16.35 57.8168 16.728 57.5288 17.232C57.2528 17.724 57.1148 18.312 57.1148 18.996C57.1148 19.68 57.2528 20.28 57.5288 20.796C57.8168 21.312 58.1888 21.708 58.6448 21.984C59.1128 22.248 59.6048 22.38 60.1208 22.38C60.6488 22.38 61.1408 22.248 61.5968 21.984C62.0528 21.72 62.4188 21.336 62.6948 20.832C62.9828 20.316 63.1268 19.716 63.1268 19.032ZM71.726 22.164L74.534 14.082H76.712L72.932 24L70.484 24L66.722 14.082L68.918 14.082L71.726 22.164ZM79.3071 12.768C78.9351 12.768 78.6231 12.642 78.3711 12.39C78.1191 12.138 77.9931 11.826 77.9931 11.454C77.9931 11.082 78.1191 10.77 78.3711 10.518C78.6231 10.266 78.9351 10.14 79.3071 10.14C79.6671 10.14 79.9731 10.266 80.2251 10.518C80.4771 10.77 80.6031 11.082 80.6031 11.454C80.6031 11.826 80.4771 12.138 80.2251 12.39C79.9731 12.642 79.6671 12.768 79.3071 12.768ZM80.3151 14.082V24H78.2631V14.082L80.3151 14.082ZM87.3112 24.162C86.3752 24.162 85.5292 23.952 84.7732 23.532C84.0172 23.1 83.4232 22.5 82.9912 21.732C82.5592 20.952 82.3432 20.052 82.3432 19.032C82.3432 18.024 82.5652 17.13 83.0092 16.35C83.4532 15.57 84.0592 14.97 84.8272 14.55C85.5952 14.13 86.4532 13.92 87.4012 13.92C88.3492 13.92 89.2072 14.13 89.9752 14.55C90.7432 14.97 91.3492 15.57 91.7932 16.35C92.2372 17.13 92.4592 18.024 92.4592 19.032C92.4592 20.04 92.2312 20.934 91.7752 21.714C91.3192 22.494 90.6952 23.1 89.9032 23.532C89.1232 23.952 88.2592 24.162 87.3112 24.162ZM87.3112 22.38C87.8392 22.38 88.3312 22.254 88.7872 22.002C89.2552 21.75 89.6332 21.372 89.9212 20.868C90.2092 20.364 90.3532 19.752 90.3532 19.032C90.3532 18.312 90.2152 17.706 89.9392 17.214C89.6632 16.71 89.2972 16.332 88.8412 16.08C88.3852 15.828 87.8932 15.702 87.3652 15.702C86.8372 15.702 86.3452 15.828 85.8892 16.08C85.4452 16.332 85.0912 16.71 84.8272 17.214C84.5632 17.706 84.4312 18.312 84.4312 19.032C84.4312 20.1 84.7012 20.928 85.2412 21.516C85.7932 22.092 86.4832 22.38 87.3112 22.38ZM103.47 14.082V24H101.418V22.83C101.094 23.238 100.668 23.562 100.14 23.802C99.6237 24.03 99.0717 24.144 98.4837 24.144C97.7037 24.144 97.0017 23.982 96.3777 23.658C95.7657 23.334 95.2797 22.854 94.9197 22.218C94.5717 21.582 94.3977 20.814 94.3977 19.914V14.082H96.4317V19.608C96.4317 20.496 96.6537 21.18 97.0977 21.66C97.5417 22.128 98.1477 22.362 98.9157 22.362C99.6837 22.362 100.29 22.128 100.734 21.66C101.19 21.18 101.418 20.496 101.418 19.608V14.082L103.47 14.082ZM108.229 15.522C108.529 15.018 108.925 14.628 109.417 14.352C109.921 14.064 110.515 13.92 111.199 13.92V16.044H110.677C109.873 16.044 109.261 16.248 108.841 16.656C108.433 17.064 108.229 17.772 108.229 18.78V24H106.177V14.082H108.229V15.522ZM114.129 12.768C113.757 12.768 113.445 12.642 113.193 12.39C112.941 12.138 112.815 11.826 112.815 11.454C112.815 11.082 112.941 10.77 113.193 10.518C113.445 10.266 113.757 10.14 114.129 10.14C114.489 10.14 114.795 10.266 115.047 10.518C115.299 10.77 115.425 11.082 115.425 11.454C115.425 11.826 115.299 12.138 115.047 12.39C114.795 12.642 114.489 12.768 114.129 12.768ZM115.137 14.082V24H113.085V14.082H115.137ZM121.431 24.162C120.651 24.162 119.949 24.024 119.325 23.748C118.713 23.46 118.227 23.076 117.867 22.596C117.507 22.104 117.315 21.558 117.291 20.958H119.415C119.451 21.378 119.649 21.732 120.009 22.02C120.381 22.296 120.843 22.434 121.395 22.434C121.971 22.434 122.415 22.326 122.727 22.11C123.051 21.882 123.213 21.594 123.213 21.246C123.213 20.874 123.033 20.598 122.673 20.418C122.325 20.238 121.767 20.04 120.999 19.824C120.255 19.62 119.649 19.422 119.181 19.23C118.713 19.038 118.305 18.744 117.957 18.348C117.621 17.952 117.453 17.43 117.453 16.782C117.453 16.254 117.609 15.774 117.921 15.342C118.233 14.898 118.677 14.55 119.253 14.298C119.841 14.046 120.513 13.92 121.269 13.92C122.397 13.92 123.303 14.208 123.987 14.784C124.683 15.348 125.055 16.122 125.103 17.106H123.051C123.015 16.662 122.835 16.308 122.511 16.044C122.187 15.78 121.749 15.648 121.197 15.648C120.657 15.648 120.243 15.75 119.955 15.954C119.667 16.158 119.523 16.428 119.523 16.764C119.523 17.028 119.619 17.25 119.811 17.43C120.003 17.61 120.237 17.754 120.513 17.862C120.789 17.958 121.197 18.084 121.737 18.24C122.457 18.432 123.045 18.63 123.501 18.834C123.969 19.026 124.371 19.314 124.707 19.698C125.043 20.082 125.217 20.592 125.229 21.228C125.229 21.792 125.073 22.296 124.761 22.74C124.449 23.184 124.005 23.532 123.429 23.784C122.865 24.036 122.199 24.162 121.431 24.162ZM129.841 15.756V21.246C129.841 21.618 129.925 21.888 130.093 22.056C130.273 22.212 130.573 22.29 130.993 22.29H132.253V24H130.633C129.709 24 129.001 23.784 128.509 23.352C128.017 22.92 127.771 22.218 127.771 21.246V15.756H126.601V14.082H127.771V11.616H129.841V14.082H132.253V15.756H129.841Z" fill="#2C5282"/>
</svg>
