<svg width="128" height="36" viewBox="0 0 128 36" fill="none" xmlns="http://www.w3.org/2000/svg">
<rect width="128" height="36" rx="18" fill="#E2E8F0"/>
<path d="M32.1691 11.49L27.4711 24H25.0951L20.3791 11.49H22.5751L26.2831 21.894L30.0091 11.49H32.1691ZM38.1872 24.162C37.2512 24.162 36.4052 23.952 35.6492 23.532C34.8932 23.1 34.2992 22.5 33.8672 21.732C33.4352 20.952 33.2192 20.052 33.2192 19.032C33.2192 18.024 33.4412 17.13 33.8852 16.35C34.3292 15.57 34.9352 14.97 35.7032 14.55C36.4712 14.13 37.3292 13.92 38.2772 13.92C39.2252 13.92 40.0832 14.13 40.8512 14.55C41.6192 14.97 42.2252 15.57 42.6692 16.35C43.1132 17.13 43.3352 18.024 43.3352 19.032C43.3352 20.04 43.1072 20.934 42.6512 21.714C42.1952 22.494 41.5712 23.1 40.7792 23.532C39.9992 23.952 39.1352 24.162 38.1872 24.162ZM38.1872 22.38C38.7152 22.38 39.2072 22.254 39.6632 22.002C40.1312 21.75 40.5092 21.372 40.7972 20.868C41.0852 20.364 41.2292 19.752 41.2292 19.032C41.2292 18.312 41.0912 17.706 40.8152 17.214C40.5392 16.71 40.1732 16.332 39.7172 16.08C39.2612 15.828 38.7692 15.702 38.2412 15.702C37.7132 15.702 37.2212 15.828 36.7652 16.08C36.3212 16.332 35.9672 16.71 35.7032 17.214C35.4392 17.706 35.3072 18.312 35.3072 19.032C35.3072 20.1 35.5772 20.928 36.1172 21.516C36.6692 22.092 37.3592 22.38 38.1872 22.38ZM47.4157 10.68V24H45.3637V10.68H47.4157ZM59.0918 14.082L59.0918 24H57.0398V22.83C56.7158 23.238 56.2898 23.562 55.7618 23.802C55.2458 24.03 54.6938 24.144 54.1058 24.144C53.3258 24.144 52.6238 23.982 51.9998 23.658C51.3878 23.334 50.9018 22.854 50.5418 22.218C50.1938 21.582 50.0198 20.814 50.0198 19.914V14.082H52.0538V19.608C52.0538 20.496 52.2758 21.18 52.7198 21.66C53.1638 22.128 53.7698 22.362 54.5378 22.362C55.3058 22.362 55.9118 22.128 56.3558 21.66C56.8118 21.18 57.0398 20.496 57.0398 19.608V14.082L59.0918 14.082ZM66.8032 13.92C67.5832 13.92 68.2792 14.082 68.8912 14.406C69.5152 14.73 70.0012 15.21 70.3492 15.846C70.6972 16.482 70.8712 17.25 70.8712 18.15V24H68.8372V18.456C68.8372 17.568 68.6152 16.89 68.1712 16.422C67.7272 15.942 67.1212 15.702 66.3532 15.702C65.5852 15.702 64.9732 15.942 64.5172 16.422C64.0732 16.89 63.8512 17.568 63.8512 18.456L63.8512 24H61.7992L61.7992 14.082H63.8512V15.216C64.1872 14.808 64.6132 14.49 65.1292 14.262C65.6572 14.034 66.2152 13.92 66.8032 13.92ZM75.8827 15.756V21.246C75.8827 21.618 75.9667 21.888 76.1347 22.056C76.3147 22.212 76.6147 22.29 77.0347 22.29L78.2947 22.29V24L76.6747 24C75.7507 24 75.0427 23.784 74.5507 23.352C74.0587 22.92 73.8127 22.218 73.8127 21.246V15.756H72.6427V14.082H73.8127V11.616H75.8827V14.082H78.2947V15.756H75.8827ZM89.2759 18.798C89.2759 19.17 89.2519 19.506 89.2039 19.806H81.6259C81.6859 20.598 81.9799 21.234 82.5079 21.714C83.0359 22.194 83.6839 22.434 84.4519 22.434C85.5559 22.434 86.3359 21.972 86.7919 21.048H89.0059C88.7059 21.96 88.1599 22.71 87.3679 23.298C86.5879 23.874 85.6159 24.162 84.4519 24.162C83.5039 24.162 82.6519 23.952 81.8959 23.532C81.1519 23.1 80.5639 22.5 80.1319 21.732C79.7119 20.952 79.5019 20.052 79.5019 19.032C79.5019 18.012 79.7059 17.118 80.1139 16.35C80.5339 15.57 81.1159 14.97 81.8599 14.55C82.6159 14.13 83.4799 13.92 84.4519 13.92C85.3879 13.92 86.2219 14.124 86.9539 14.532C87.6859 14.94 88.2559 15.516 88.6639 16.26C89.0719 16.992 89.2759 17.838 89.2759 18.798ZM87.1339 18.15C87.1219 17.394 86.8519 16.788 86.3239 16.332C85.7959 15.876 85.1419 15.648 84.3619 15.648C83.6539 15.648 83.0479 15.876 82.5439 16.332C82.0399 16.776 81.7399 17.382 81.6439 18.15H87.1339ZM100.385 18.798C100.385 19.17 100.361 19.506 100.313 19.806L92.7353 19.806C92.7953 20.598 93.0893 21.234 93.6173 21.714C94.1453 22.194 94.7933 22.434 95.5613 22.434C96.6653 22.434 97.4453 21.972 97.9013 21.048L100.115 21.048C99.8153 21.96 99.2693 22.71 98.4773 23.298C97.6973 23.874 96.7253 24.162 95.5613 24.162C94.6133 24.162 93.7613 23.952 93.0053 23.532C92.2613 23.1 91.6733 22.5 91.2413 21.732C90.8213 20.952 90.6113 20.052 90.6113 19.032C90.6113 18.012 90.8153 17.118 91.2233 16.35C91.6433 15.57 92.2253 14.97 92.9693 14.55C93.7253 14.13 94.5893 13.92 95.5613 13.92C96.4973 13.92 97.3313 14.124 98.0633 14.532C98.7953 14.94 99.3653 15.516 99.7733 16.26C100.181 16.992 100.385 17.838 100.385 18.798ZM98.2433 18.15C98.2313 17.394 97.9613 16.788 97.4333 16.332C96.9053 15.876 96.2513 15.648 95.4713 15.648C94.7633 15.648 94.1573 15.876 93.6533 16.332C93.1493 16.776 92.8493 17.382 92.7533 18.15L98.2433 18.15ZM104.457 15.522C104.757 15.018 105.153 14.628 105.645 14.352C106.149 14.064 106.743 13.92 107.427 13.92V16.044H106.905C106.101 16.044 105.489 16.248 105.069 16.656C104.661 17.064 104.457 17.772 104.457 18.78V24H102.405V14.082L104.457 14.082V15.522Z" fill="#A0AEC0"/>
</svg>
