<svg width="82" height="38" viewBox="0 0 82 38" fill="none" xmlns="http://www.w3.org/2000/svg">
<rect x="0.5" y="0.5" width="81" height="37" rx="18.5" fill="#FFF5F7"/>
<rect x="0.5" y="0.5" width="81" height="37" rx="18.5" stroke="#F687B3"/>
<path d="M25.6156 25.126C24.7756 25.126 24.0196 24.982 23.3476 24.694C22.6756 24.394 22.1476 23.974 21.7636 23.434C21.3796 22.894 21.1876 22.264 21.1876 21.544H23.3836C23.4316 22.084 23.6416 22.528 24.0136 22.876C24.3976 23.224 24.9316 23.398 25.6156 23.398C26.3236 23.398 26.8756 23.23 27.2716 22.894C27.6676 22.546 27.8656 22.102 27.8656 21.562C27.8656 21.142 27.7396 20.8 27.4876 20.536C27.2476 20.272 26.9416 20.068 26.5696 19.924C26.2096 19.78 25.7056 19.624 25.0576 19.456C24.2416 19.24 23.5756 19.024 23.0596 18.808C22.5556 18.58 22.1236 18.232 21.7636 17.764C21.4036 17.296 21.2236 16.672 21.2236 15.892C21.2236 15.172 21.4036 14.542 21.7636 14.002C22.1236 13.462 22.6276 13.048 23.2756 12.76C23.9236 12.472 24.6736 12.328 25.5256 12.328C26.7376 12.328 27.7276 12.634 28.4956 13.246C29.2756 13.846 29.7076 14.674 29.7916 15.73H27.5236C27.4876 15.274 27.2716 14.884 26.8756 14.56C26.4796 14.236 25.9576 14.074 25.3096 14.074C24.7216 14.074 24.2416 14.224 23.8696 14.524C23.4976 14.824 23.3116 15.256 23.3116 15.82C23.3116 16.204 23.4256 16.522 23.6536 16.774C23.8936 17.014 24.1936 17.206 24.5536 17.35C24.9136 17.494 25.4056 17.65 26.0296 17.818C26.8576 18.046 27.5296 18.274 28.0456 18.502C28.5736 18.73 29.0176 19.084 29.3776 19.564C29.7496 20.032 29.9356 20.662 29.9356 21.454C29.9356 22.09 29.7616 22.69 29.4136 23.254C29.0776 23.818 28.5796 24.274 27.9196 24.622C27.2716 24.958 26.5036 25.126 25.6156 25.126ZM34.7508 16.756V22.246C34.7508 22.618 34.8348 22.888 35.0028 23.056C35.1828 23.212 35.4828 23.29 35.9028 23.29H37.1628V25H35.5428C34.6188 25 33.9108 24.784 33.4188 24.352C32.9268 23.92 32.6808 23.218 32.6808 22.246V16.756H31.5108V15.082H32.6808V12.616L34.7508 12.616V15.082L37.1628 15.082V16.756L34.7508 16.756ZM38.3701 19.996C38.3701 19 38.5741 18.118 38.9821 17.35C39.4021 16.582 39.9661 15.988 40.6741 15.568C41.3941 15.136 42.1861 14.92 43.0501 14.92C43.8301 14.92 44.5081 15.076 45.0841 15.388C45.6721 15.688 46.1401 16.066 46.4881 16.522V15.082H48.5581V25H46.4881V23.524C46.1401 23.992 45.6661 24.382 45.0661 24.694C44.4661 25.006 43.7821 25.162 43.0141 25.162C42.1621 25.162 41.3821 24.946 40.6741 24.514C39.9661 24.07 39.4021 23.458 38.9821 22.678C38.5741 21.886 38.3701 20.992 38.3701 19.996ZM46.4881 20.032C46.4881 19.348 46.3441 18.754 46.0561 18.25C45.7801 17.746 45.4141 17.362 44.9581 17.098C44.5021 16.834 44.0101 16.702 43.4821 16.702C42.9541 16.702 42.4621 16.834 42.0061 17.098C41.5501 17.35 41.1781 17.728 40.8901 18.232C40.6141 18.724 40.4761 19.312 40.4761 19.996C40.4761 20.68 40.6141 21.28 40.8901 21.796C41.1781 22.312 41.5501 22.708 42.0061 22.984C42.4741 23.248 42.9661 23.38 43.4821 23.38C44.0101 23.38 44.5021 23.248 44.9581 22.984C45.4141 22.72 45.7801 22.336 46.0561 21.832C46.3441 21.316 46.4881 20.716 46.4881 20.032ZM55.4113 16.756H53.5753L53.5753 25H51.5053V16.756H50.3353V15.082H51.5053V14.38C51.5053 13.24 51.8053 12.412 52.4053 11.896C53.0173 11.368 53.9713 11.104 55.2673 11.104V12.814C54.6433 12.814 54.2053 12.934 53.9533 13.174C53.7013 13.402 53.5753 13.804 53.5753 14.38V15.082H55.4113V16.756ZM61.3879 16.756H59.5519L59.5519 25H57.4819L57.4819 16.756L56.3119 16.756V15.082L57.4819 15.082V14.38C57.4819 13.24 57.7819 12.412 58.3819 11.896C58.9939 11.368 59.9479 11.104 61.2439 11.104V12.814C60.6199 12.814 60.1819 12.934 59.9299 13.174C59.6779 13.402 59.5519 13.804 59.5519 14.38V15.082L61.3879 15.082V16.756Z" fill="#2C5282"/>
</svg>
