<svg width="24" height="25" viewBox="0 0 24 25" fill="none" xmlns="http://www.w3.org/2000/svg">
<path fill-rule="evenodd" clip-rule="evenodd" d="M12 3.7002C7.02944 3.7002 3 7.72963 3 12.7002C3 17.6708 7.02944 21.7002 12 21.7002C16.9706 21.7002 21 17.6708 21 12.7002C21 7.72963 16.9706 3.7002 12 3.7002ZM1 12.7002C1 6.62506 5.92487 1.7002 12 1.7002C18.0751 1.7002 23 6.62506 23 12.7002C23 18.7753 18.0751 23.7002 12 23.7002C5.92487 23.7002 1 18.7753 1 12.7002Z" fill="#1A202C"/>
<path fill-rule="evenodd" clip-rule="evenodd" d="M12 7.7002C12.5523 7.7002 13 8.14791 13 8.7002V12.7002C13 13.2525 12.5523 13.7002 12 13.7002C11.4477 13.7002 11 13.2525 11 12.7002V8.7002C11 8.14791 11.4477 7.7002 12 7.7002Z" fill="#1A202C"/>
<path fill-rule="evenodd" clip-rule="evenodd" d="M11 16.7002C11 16.1479 11.4477 15.7002 12 15.7002H12.01C12.5623 15.7002 13.01 16.1479 13.01 16.7002C13.01 17.2525 12.5623 17.7002 12.01 17.7002H12C11.4477 17.7002 11 17.2525 11 16.7002Z" fill="#1A202C"/>
</svg>
