<svg width="20" height="22" viewBox="0 0 20 22" fill="none" xmlns="http://www.w3.org/2000/svg">
<path d="M17.4107 9.91228H12.5V5.61336H10.8929C11.3903 4.94721 11.6576 4.13648 11.6542 3.30417C11.6542 2.06644 11.0703 0.903445 10.1304 0.26913L9.73165 0L9.33295 0.26913C8.39286 0.903535 7.80915 2.06648 7.80915 3.30417C7.8058 4.13649 8.07318 4.9472 8.57071 5.61332H6.78571V9.91224H2.58929C1.9028 9.91302 1.24466 10.1869 0.759246 10.6738C0.273829 11.1607 0.000779839 11.8209 0 12.5095V20.567C0.000425376 20.9469 0.151072 21.3112 0.418889 21.5798C0.686706 21.8485 1.04982 21.9996 1.42857 22H18.5714C18.9502 21.9996 19.3133 21.8485 19.5811 21.5798C19.8489 21.3112 19.9996 20.9469 20 20.567V12.5095C19.9992 11.821 19.7262 11.1608 19.2408 10.6739C18.7553 10.187 18.0972 9.91306 17.4107 9.91228ZM9.73165 1.8283C10.0437 2.21717 10.2256 2.74477 10.2256 3.30421C10.2256 3.86366 10.0437 4.3913 9.73165 4.78013C9.41964 4.3913 9.23772 3.86366 9.23772 3.30417C9.23772 2.74468 9.41964 2.21717 9.73165 1.8283ZM8.21429 7.04634H11.0714V9.91228H8.21429V7.04634ZM1.42857 12.5095C1.42893 12.2009 1.55133 11.9049 1.76893 11.6867C1.98653 11.4684 2.28155 11.3456 2.58929 11.3453H17.4107C17.7184 11.3456 18.0135 11.4684 18.2311 11.6867C18.4487 11.9049 18.5711 12.2009 18.5714 12.5095V13.9236L17.6071 14.3504C17.4186 14.4336 17.2148 14.4766 17.0087 14.4766C16.8027 14.4766 16.5989 14.4336 16.4103 14.3504L14.7321 13.6076L13.0536 14.3503C12.865 14.4336 12.6612 14.4766 12.4551 14.4766C12.2491 14.4766 12.0453 14.4336 11.8567 14.3503L10.1786 13.6076L8.5 14.3503C8.31141 14.4335 8.10761 14.4765 7.90156 14.4765C7.69551 14.4765 7.49172 14.4335 7.30312 14.3503L5.625 13.6076L3.94674 14.3503C3.75815 14.4335 3.55435 14.4765 3.3483 14.4765C3.14226 14.4765 2.93846 14.4335 2.74987 14.3503L1.42857 13.7656V12.5095ZM18.5714 20.567H1.42857V15.3319L2.17313 15.6614C2.54345 15.8248 2.94362 15.9092 3.34821 15.9092C3.75281 15.9092 4.15298 15.8248 4.5233 15.6614L5.625 15.1738L6.72674 15.6614C7.09706 15.8248 7.49722 15.9092 7.90181 15.9092C8.30639 15.9092 8.70656 15.8248 9.07688 15.6614L10.1786 15.1738L11.2802 15.6614C11.6505 15.8248 12.0507 15.9092 12.4553 15.9092C12.8598 15.9092 13.26 15.8248 13.6303 15.6614L14.7321 15.1738L15.8338 15.6614C16.2041 15.8249 16.6043 15.9093 17.0089 15.9093C17.4134 15.9093 17.8136 15.8249 18.1839 15.6614L18.572 15.4897L18.5723 20.567H18.5714Z" fill="#1A202C"/>
</svg>
