<svg width="70" height="70" viewBox="0 0 70 70" fill="none" xmlns="http://www.w3.org/2000/svg">
<g clip-path="url(#clip0_1696_1634)">
<path d="M35 70C54.33 70 70 54.33 70 35C70 15.67 54.33 0 35 0C15.67 0 0 15.67 0 35C0 54.33 15.67 70 35 70Z" fill="white"/>
<mask id="mask0_1696_1634" style="mask-type:luminance" maskUnits="userSpaceOnUse" x="0" y="0" width="70" height="70">
<path d="M70 0H0V70H70V0Z" fill="white"/>
</mask>
<g mask="url(#mask0_1696_1634)">
<path fill-rule="evenodd" clip-rule="evenodd" d="M34.9999 3.84559e-10C39.5962 -2.15447e-05 44.1475 0.905262 48.3939 2.66416C52.6403 4.42306 56.4986 7.00114 59.7487 10.2512C62.9988 13.5012 65.5769 17.3596 67.3358 21.606C69.0947 25.8524 70 30.4037 70 34.9999C70 54.3299 54.3299 70 34.9999 70C15.6701 70 0 54.3299 0 34.9999C0 15.6701 15.6701 3.84556e-10 34.9999 3.84559e-10ZM38.5 38.5H31.5C22.835 38.5 15.3959 43.7479 12.1874 51.2391C17.2641 58.358 25.59 62.9999 34.9999 62.9999C44.4099 62.9999 52.7357 58.358 57.8126 51.2386C54.6041 43.7479 47.165 38.5 38.5 38.5ZM34.9999 10.5C29.201 10.5 24.4999 15.201 24.4999 21C24.4999 26.7989 29.201 31.5 34.9999 31.5C40.7989 31.5 45.4999 26.7989 45.4999 21C45.4999 15.201 40.799 10.5 34.9999 10.5Z" fill="#2C5282"/>
</g>
</g>
<defs>
<clipPath id="clip0_1696_1634">
<rect width="70" height="70" fill="white"/>
</clipPath>
</defs>
</svg>
