<svg width="24" height="25" viewBox="0 0 24 25" fill="none" xmlns="http://www.w3.org/2000/svg">
<path d="M4 21.7002H13.62C14.1971 21.7005 14.7674 21.5758 15.2916 21.3346C15.8159 21.0935 16.2817 20.7416 16.657 20.3032L21.759 14.3512C21.8658 14.2268 21.9404 14.078 21.9762 13.918C22.012 13.7579 22.0079 13.5915 21.9642 13.4335C21.9206 13.2754 21.8387 13.1305 21.7258 13.0115C21.6129 12.8925 21.4726 12.8031 21.317 12.7512L19.349 12.0952C18.8734 11.9406 18.3669 11.9056 17.8745 11.9933C17.3821 12.0811 16.919 12.2888 16.526 12.5982L13.341 15.1452L12.724 13.9102C12.3935 13.2445 11.8831 12.6846 11.2507 12.294C10.6184 11.9034 9.88926 11.6977 9.146 11.7002H4C2.897 11.7002 2 12.5972 2 13.7002V19.7002C2 20.8032 2.897 21.7002 4 21.7002ZM4 13.7002H9.146C9.909 13.7002 10.594 14.1232 10.935 14.8052L11.382 15.7002H7V17.7002H13.014C13.1679 17.6982 13.3191 17.6605 13.456 17.5902L13.459 17.5892L13.463 17.5872H13.466L13.468 17.5862H13.472L13.473 17.5852C13.482 17.5882 13.476 17.5842 13.476 17.5842C13.486 17.5842 13.478 17.5832 13.478 17.5832H13.479L13.481 17.5822L13.484 17.5812L13.486 17.5802L13.488 17.5792L13.491 17.5782L13.493 17.5772C13.496 17.5772 13.494 17.5762 13.495 17.5762L13.498 17.5742L13.5 17.5732L13.502 17.5722L13.505 17.5712L13.507 17.5702H13.508L13.51 17.5692H13.511L13.513 17.5682L13.515 17.5672C13.524 17.5662 13.518 17.5662 13.518 17.5662L13.52 17.5652C13.5585 17.5419 13.5953 17.5159 13.63 17.4872L17.776 14.1702C18.038 13.9622 18.399 13.8972 18.716 14.0032L19.273 14.1892L15.14 19.0122C14.9499 19.2281 14.716 19.4011 14.454 19.5197C14.1919 19.6383 13.9077 19.6998 13.62 19.7002H4V13.7002ZM16 2.7002H15.983C15.82 2.7022 14.977 2.7392 14 3.4052C13.049 2.7572 12.226 2.7052 12.032 2.7012L12.002 2.7002H11.998C11.197 2.7002 10.443 3.0132 9.879 3.5782C9.313 4.1452 9 4.8982 9 5.7002C9 6.5022 9.313 7.25521 9.861 7.8042L13.275 11.3902C13.3689 11.4877 13.4816 11.5653 13.6062 11.6182C13.7308 11.6711 13.8648 11.6984 14.0002 11.6983C14.1356 11.6982 14.2696 11.6708 14.3941 11.6177C14.5187 11.5645 14.6312 11.4868 14.725 11.3892L18.121 7.8212C18.688 7.2552 19 6.5022 19 5.7002C19 4.8982 18.687 4.1452 18.122 3.5792C17.8443 3.29975 17.514 3.07816 17.1501 2.92728C16.7862 2.7764 16.3959 2.69921 16.002 2.7002H16ZM17 5.7002C17 5.9672 16.896 6.2182 16.689 6.4252L14 9.25021L11.293 6.4072C11.104 6.2182 11 5.9672 11 5.7002C11 5.4332 11.104 5.1822 11.294 4.9922C11.4748 4.80826 11.7211 4.7033 11.979 4.7002C12.004 4.7012 12.481 4.7322 13.046 5.1852C13.127 5.2502 13.209 5.3242 13.293 5.4072L14 6.1142L14.707 5.4072C14.791 5.3242 14.873 5.2502 14.954 5.1852C15.483 4.7602 15.93 4.7072 16.006 4.7012C16.1363 4.70118 16.2654 4.72697 16.3857 4.77709C16.506 4.82721 16.6152 4.90066 16.707 4.9932C16.896 5.1822 17 5.4332 17 5.7002Z" fill="#1A202C"/>
</svg>
