<svg width="42" height="42" viewBox="0 0 42 42" fill="none" xmlns="http://www.w3.org/2000/svg">
<circle cx="21" cy="21" r="21" fill="#E2E8F0"/>
<path d="M31 32.0024H11V28.0024H31V32.0024ZM22.06 13.1924L25.81 16.9424L16.75 26.0024H13V22.2524L22.06 13.1924ZM26.88 15.8724L23.13 12.1224L24.96 10.2924C25.0525 10.1997 25.1624 10.1262 25.2834 10.076C25.4043 10.0258 25.534 10 25.665 10C25.796 10 25.9257 10.0258 26.0466 10.076C26.1676 10.1262 26.2775 10.1997 26.37 10.2924L28.71 12.6324C29.1 13.0224 29.1 13.6524 28.71 14.0424L26.88 15.8724Z" fill="black"/>
</svg>
