<svg width="40" height="40" viewBox="0 0 40 40" fill="none" xmlns="http://www.w3.org/2000/svg">
<rect width="40" height="40" rx="6" fill="#68D391"/>
<path d="M30.4239 9.57464C28.3617 7.51504 25.735 6.11286 22.8757 5.54535C20.0165 4.97784 17.0532 5.27048 14.3603 6.38628C11.6674 7.50208 9.36587 9.39095 7.74665 11.8141C6.12742 14.2373 5.26318 17.0859 5.26318 20C5.26318 22.9141 6.12742 25.7628 7.74665 28.1859C9.36587 30.6091 11.6674 32.498 14.3603 33.6138C17.0532 34.7296 20.0165 35.0222 22.8757 34.4547C25.735 33.8872 28.3617 32.485 30.4239 30.4254C33.1858 27.6583 34.7369 23.909 34.7369 20C34.7369 16.0911 33.1858 12.3418 30.4239 9.57464ZM32.2049 18.6878C30.731 18.8665 29.2357 18.7078 27.8323 18.2235C26.4289 17.7392 25.154 16.9421 24.1042 15.8926C23.0544 14.843 22.2573 13.5685 21.773 12.1655C21.2887 10.7624 21.1301 9.26766 21.309 7.79428C24.0987 8.08748 26.7031 9.32943 28.6865 11.3124C30.6698 13.2953 31.9119 15.899 32.2049 18.6878ZM7.78536 21.3123C9.25925 21.1335 10.7545 21.2923 12.1579 21.7766C13.5614 22.2608 14.8362 23.0579 15.886 24.1075C16.9358 25.157 17.733 26.4315 18.2173 27.8346C18.7015 29.2376 18.8602 30.7324 18.6812 32.2058C15.8915 31.9126 13.2872 30.6706 11.3038 28.6877C9.32041 26.7047 8.07835 24.1011 7.78536 21.3123ZM28.686 28.6844C26.6667 30.7074 24.0021 31.9591 21.1554 32.2217C21.3318 30.4196 21.1063 28.6008 20.4953 26.8962C19.8843 25.1916 18.9029 23.6435 17.6218 22.3635C16.3406 21.0835 14.7915 20.1032 13.086 19.4934C11.3805 18.8835 9.56096 18.6592 7.75832 18.8365C8.02566 15.9912 9.27882 13.3286 11.3013 11.3089C13.3237 9.28911 15.9884 8.03903 18.8349 7.77462C18.6696 9.47826 18.8627 11.1976 19.4018 12.8222C19.9409 14.4468 20.814 15.9406 21.9651 17.2077C23.1161 18.4748 24.5197 19.4872 26.0855 20.1797C27.6513 20.8722 29.3447 21.2295 31.0569 21.2287C31.4465 21.2287 31.8374 21.2091 32.2282 21.1722C31.9613 24.014 30.7081 26.6729 28.686 28.688V28.6844Z" fill="#F0FFF4"/>
</svg>
