<svg width="40" height="40" viewBox="0 0 40 40" fill="none" xmlns="http://www.w3.org/2000/svg">
<rect width="40" height="40" rx="6" fill="#F687B3"/>
<path fill-rule="evenodd" clip-rule="evenodd" d="M20.263 12.064C17.8954 9.30479 13.939 8.45206 10.9725 10.9787C8.006 13.5053 7.58836 17.7297 9.91798 20.718C11.8549 23.2025 17.7167 28.4426 19.6379 30.1386C19.8527 30.3284 19.9602 30.4232 20.0856 30.4605C20.195 30.493 20.3147 30.493 20.4242 30.4605C20.5496 30.4232 20.6569 30.3284 20.8719 30.1386C22.7931 28.4426 28.6548 23.2025 30.5918 20.718C32.9214 17.7297 32.5547 13.4787 29.5372 10.9787C26.5197 8.47864 22.6306 9.30479 20.263 12.064Z" stroke="#FFF5F7" stroke-width="3" stroke-linecap="round" stroke-linejoin="round"/>
</svg>
