<svg width="23" height="23" viewBox="0 0 23 23" fill="none" xmlns="http://www.w3.org/2000/svg">
<path d="M8.0625 9.8252C10.7162 9.8252 12.875 11.9839 12.875 14.6377C12.875 17.2914 10.7162 19.4502 8.0625 19.4502C5.40875 19.4502 3.25 17.2914 3.25 14.6377C3.25 11.9839 5.40875 9.8252 8.0625 9.8252ZM8.0625 7.0752C3.8825 7.0752 0.5 10.4577 0.5 14.6377C0.5 18.8177 3.8825 22.2002 8.0625 22.2002C12.2425 22.2002 15.625 18.8177 15.625 14.6377C15.625 13.0427 15.13 11.5714 14.2912 10.3477L19.75 4.9027V8.4502H22.5V0.200195H14.25V2.9502H17.7975L12.3387 8.40895C11.1287 7.5702 9.6575 7.0752 8.0625 7.0752Z" fill="#1A202C"/>
</svg>
