<svg width="41" height="40" viewBox="0 0 41 40" fill="none" xmlns="http://www.w3.org/2000/svg">
<rect width="41" height="40" rx="6" fill="#FFEB6A"/>
<path d="M11.9462 31.9168C11.8162 32.6567 12.5458 33.235 13.1887 32.905L20.5006 29.1453L27.8109 32.905C28.4539 33.235 29.1834 32.6567 29.0535 31.9184L27.671 24.0357L33.5373 18.4428C34.0869 17.9195 33.8038 16.9629 33.0676 16.8596L24.9095 15.6997L21.2718 8.48854C21.2025 8.34236 21.0932 8.21886 20.9565 8.13238C20.8199 8.04591 20.6615 8 20.4998 8C20.3381 8 20.1797 8.04591 20.0431 8.13238C19.9064 8.21886 19.7971 8.34236 19.7278 8.48854L16.0902 15.7013L7.93207 16.8612C7.19755 16.9646 6.91273 17.9212 7.46071 18.4444L13.3286 24.0373L11.9462 31.9201V31.9168ZM20.1159 27.3054L13.9765 30.4619L15.1324 23.8674C15.1595 23.7156 15.1489 23.5594 15.1016 23.4127C15.0542 23.2659 14.9716 23.1331 14.8609 23.0258L10.0207 18.4094L16.7697 17.4495C16.9095 17.4284 17.042 17.3737 17.156 17.2901C17.27 17.2065 17.3621 17.0965 17.4243 16.9696L20.4973 10.8734L23.5737 16.9696C23.6359 17.0965 23.7279 17.2065 23.8419 17.2901C23.9559 17.3737 24.0885 17.4284 24.2282 17.4495L30.9772 18.4078L26.137 23.0241C26.0261 23.1316 25.9433 23.2647 25.896 23.4118C25.8486 23.5588 25.8382 23.7153 25.8655 23.8674L27.0215 30.4619L20.8821 27.3054C20.7634 27.2442 20.6317 27.2122 20.4982 27.2122C20.3646 27.2122 20.2329 27.2442 20.1142 27.3054H20.1159Z" fill="white" stroke="white"/>
</svg>
