<svg width="38" height="38" viewBox="0 0 38 38" fill="none" xmlns="http://www.w3.org/2000/svg">
<path d="M19 1C9.0586 1 1 9.0586 1 19C1 28.9414 9.0586 37 19 37C28.9414 37 37 28.9414 37 19C37 9.0586 28.9414 1 19 1Z" stroke="#2D3748" stroke-width="2" stroke-linecap="round" stroke-linejoin="round"/>
<path d="M5.08789 30.422C5.08789 30.422 9.10009 25.2992 19.0001 25.2992C28.9001 25.2992 32.9141 30.422 32.9141 30.422M19.0001 18.9992C20.4323 18.9992 21.8058 18.4303 22.8185 17.4176C23.8312 16.4049 24.4001 15.0314 24.4001 13.5992C24.4001 12.1671 23.8312 10.7935 22.8185 9.78084C21.8058 8.76815 20.4323 8.19922 19.0001 8.19922C17.5679 8.19922 16.1944 8.76815 15.1817 9.78084C14.169 10.7935 13.6001 12.1671 13.6001 13.5992C13.6001 15.0314 14.169 16.4049 15.1817 17.4176C16.1944 18.4303 17.5679 18.9992 19.0001 18.9992Z" stroke="#2D3748" stroke-width="2" stroke-linecap="round" stroke-linejoin="round"/>
</svg>
