<svg width="24" height="24" viewBox="0 0 24 24" fill="none" xmlns="http://www.w3.org/2000/svg">
<path d="M1.71436 18.0007V22.2858H5.99949L18.6378 9.6475L14.3526 5.36237L1.71436 18.0007ZM21.9516 6.33366C22.0575 6.22795 22.1416 6.10238 22.1989 5.96414C22.2563 5.82591 22.2858 5.67772 22.2858 5.52806C22.2858 5.3784 22.2563 5.23021 22.1989 5.09198C22.1416 4.95374 22.0575 4.82817 21.9516 4.72245L19.2777 2.04853C19.172 1.9426 19.0464 1.85856 18.9082 1.80121C18.7699 1.74387 18.6217 1.71436 18.4721 1.71436C18.3224 1.71436 18.1742 1.74387 18.036 1.80121C17.8978 1.85856 17.7722 1.9426 17.6665 2.04853L15.5753 4.13968L19.8605 8.42481L21.9516 6.33366Z" fill="#2D3748"/>
</svg>
