<svg width="14" height="15" viewBox="0 0 14 15" fill="none" xmlns="http://www.w3.org/2000/svg">
<path d="M0.0127203 12.2927C-0.00664248 12.3895 -0.00664721 12.5057 0.0320784 12.5831C0.438697 13.6287 1.92964 14.2871 2.95587 14.442C6.28627 14.926 9.17133 12.2927 11.0689 9.87234C12.7534 7.72306 15.5223 3.5988 12.8503 1.1591C12.5211 0.8493 12.037 0.4814 11.553 0.5007C10.7397 0.5588 10.1588 1.314 9.71349 1.8949C9.38432 2.3402 8.47427 3.2696 8.49363 3.8505C8.51299 4.3733 9.05515 4.70246 9.38432 5.03163L9.96521 5.61252C10.062 5.70933 9.24878 6.94855 9.15197 7.08409C8.8228 7.58752 8.45491 8.0716 8.04829 8.49758C7.64167 8.92356 7.19632 9.31081 6.73161 9.63998C6.59607 9.7368 5.41495 10.5307 5.31813 10.4532C5.31813 10.4532 4.58234 9.77552 4.2919 9.58189C3.67229 9.17527 3.18822 8.86547 2.45243 9.33018C2.18135 9.50444 1.96836 9.71743 1.73601 9.94979C1.34875 10.3564 0.94213 10.763 0.612962 11.2277C0.419334 11.4794 0.0708088 11.9054 0.0127203 12.2927Z" fill="#2D3748"/>
</svg>
