<svg width="44" height="43" viewBox="0 0 44 43" fill="none" xmlns="http://www.w3.org/2000/svg">
<path fill-rule="evenodd" clip-rule="evenodd" d="M4.10449 21.5C4.10449 11.5589 11.9395 3.5 21.6045 3.5C31.2694 3.5 39.1045 11.5589 39.1045 21.5C39.1045 31.441 31.2694 39.5 21.6045 39.5C11.9395 39.5 4.10449 31.441 4.10449 21.5ZM21.6043 10.7C17.7383 10.7 14.6043 13.9235 14.6043 17.9C14.6043 21.8764 17.7383 25.1 21.6043 25.1C25.4702 25.1 28.6043 21.8764 28.6043 17.9C28.6043 13.9235 25.4702 10.7 21.6043 10.7ZM30.5496 28.6953C31.8758 29.5737 31.811 31.4884 30.6033 32.5318C28.17 34.6339 25.0312 35.9 21.6047 35.9C18.2009 35.9 15.0808 34.6506 12.6542 32.5732C11.4358 31.5301 11.3712 29.6058 12.7031 28.7216C13.1178 28.4464 13.5693 28.2052 14.0594 27.9975C16.031 27.1614 18.5493 26.9 21.6045 26.9C24.675 26.9 27.2076 27.1446 29.1844 27.9717C29.6783 28.1784 30.1329 28.4194 30.5496 28.6953Z" fill="#2D3748"/>
</svg>
