<svg width="23" height="23" viewBox="0 0 23 23" fill="none" xmlns="http://www.w3.org/2000/svg">
<path d="M15.0576 0.100098L0.5 14.6577L7.94243 22.1001L22.5 7.54253L15.0576 0.100098ZM2.73573 14.6577L15.0576 2.33583L20.2643 7.54253L19.4057 8.40109L17.9882 6.9836L16.8703 8.10146L18.2878 9.51896L17.034 10.7728L14.0354 7.77417L12.9175 8.89203L15.9161 11.8907L14.6623 13.1445L13.2448 11.727L12.1269 12.8449L13.5444 14.2624L12.2906 15.5162L10.8731 14.0987L9.75521 15.2166L11.1727 16.6341L9.91886 17.8879L6.92022 14.8893L5.80236 16.0072L8.80099 19.0058L7.94243 19.8644L2.73573 14.6577Z" fill="#1A202C"/>
</svg>
