<svg width="40" height="40" viewBox="0 0 40 40" fill="none" xmlns="http://www.w3.org/2000/svg">
<rect width="40" height="40" rx="6" fill="#4299E1"/>
<path d="M23.3259 27.0783L25.6304 24.1563V30.5487C25.6304 31.6063 26.4764 32.4524 27.534 32.4524C28.5916 32.4524 29.4376 31.6063 29.4376 30.5487V24.1563C30.0017 24.1563 30.0722 23.7802 30.0722 23.3572V18.5863L24.0557 15.6486L12.5464 24.1562L7.65045 20.7954C7.13341 20.4899 6.45186 20.6779 6.14634 21.2185C5.84081 21.7355 6.02883 22.4171 6.56937 22.7226L11.7944 26.3263L11.1767 30.5722C11.1767 31.6298 12.0228 32.4759 13.0804 32.4759C14.1379 32.4759 16.8081 32.8989 16.8081 31.8413L16.6108 32.1469L16.4914 32.3311L17.3095 32.1469C19.0643 32.3427 20.1074 32.6874 21.024 32.1469C21.917 31.6063 21.682 30.8386 21.682 29.5382L23.3259 27.0783Z" fill="#EBF8FF"/>
<path d="M24.6436 14.3561L30.049 16.9177V15.9072H32.9945L35 13.2906L28.8411 11.0345L24.6436 7V14.3561Z" fill="#EBF8FF"/>
</svg>
