<svg width="44" height="43" viewBox="0 0 44 43" fill="none" xmlns="http://www.w3.org/2000/svg">
<path d="M18.0212 21.5003C21.9792 21.5003 25.1878 18.2917 25.1878 14.3337C25.1878 10.3756 21.9792 7.16699 18.0212 7.16699C14.0631 7.16699 10.8545 10.3756 10.8545 14.3337C10.8545 18.2917 14.0631 21.5003 18.0212 21.5003Z" fill="#2D3748"/>
<path d="M19.2213 23.3272C18.8271 23.3093 18.4329 23.2913 18.0208 23.2913C13.685 23.2913 9.63583 24.4918 6.17792 26.5522C4.60125 27.4838 3.6875 29.2397 3.6875 31.0851V35.833H20.2783C19.0129 34.0278 18.2484 31.9195 18.0627 29.7227C17.877 27.5259 18.2767 25.3192 19.2213 23.3272ZM37.2812 28.6663C37.2812 28.2722 37.2275 27.9138 37.1738 27.5376L39.2163 25.728L37.4246 22.6284L34.8267 23.5063C34.2533 23.0226 33.6083 22.6463 32.8917 22.3776L32.3542 19.708H28.7708L28.2333 22.3776C27.5167 22.6463 26.8717 23.0226 26.2983 23.5063L23.7004 22.6284L21.9088 25.728L23.9513 27.5376C23.8975 27.9138 23.8438 28.2722 23.8438 28.6663C23.8438 29.0605 23.8975 29.4188 23.9513 29.7951L21.9088 31.6047L23.7004 34.7043L26.2983 33.8263C26.8717 34.3101 27.5167 34.6863 28.2333 34.9551L28.7708 37.6247H32.3542L32.8917 34.9551C33.6083 34.6863 34.2533 34.3101 34.8267 33.8263L37.4246 34.7043L39.2163 31.6047L37.1738 29.7951C37.2275 29.4188 37.2812 29.0605 37.2812 28.6663ZM30.5625 32.2497C28.5917 32.2497 26.9792 30.6372 26.9792 28.6663C26.9792 26.6955 28.5917 25.083 30.5625 25.083C32.5333 25.083 34.1458 26.6955 34.1458 28.6663C34.1458 30.6372 32.5333 32.2497 30.5625 32.2497Z" fill="#2D3748"/>
</svg>
