<svg width="76" height="36" viewBox="0 0 76 36" fill="none" xmlns="http://www.w3.org/2000/svg">
<rect width="76" height="36" rx="18" fill="#C6F6D5"/>
<path d="M28.4503 17.574C29.1223 17.694 29.6923 18.048 30.1603 18.636C30.6283 19.224 30.8623 19.89 30.8623 20.634C30.8623 21.27 30.6943 21.846 30.3583 22.362C30.0343 22.866 29.5603 23.268 28.9363 23.568C28.3123 23.856 27.5863 24 26.7583 24H21.7543L21.7543 11.49L26.5243 11.49C27.3763 11.49 28.1083 11.634 28.7203 11.922C29.3323 12.21 29.7943 12.6 30.1063 13.092C30.4183 13.572 30.5743 14.112 30.5743 14.712C30.5743 15.432 30.3823 16.032 29.9983 16.512C29.6143 16.992 29.0983 17.346 28.4503 17.574ZM23.8063 16.746H26.3443C27.0163 16.746 27.5383 16.596 27.9103 16.296C28.2943 15.984 28.4863 15.54 28.4863 14.964C28.4863 14.4 28.2943 13.962 27.9103 13.65C27.5383 13.326 27.0163 13.164 26.3443 13.164L23.8063 13.164L23.8063 16.746ZM26.5783 22.326C27.2743 22.326 27.8203 22.158 28.2163 21.822C28.6123 21.486 28.8103 21.018 28.8103 20.418C28.8103 19.806 28.6003 19.32 28.1803 18.96C27.7603 18.6 27.2023 18.42 26.5063 18.42H23.8063V22.326H26.5783ZM34.1362 12.768C33.7642 12.768 33.4522 12.642 33.2002 12.39C32.9482 12.138 32.8222 11.826 32.8222 11.454C32.8222 11.082 32.9482 10.77 33.2002 10.518C33.4522 10.266 33.7642 10.14 34.1362 10.14C34.4962 10.14 34.8022 10.266 35.0542 10.518C35.3062 10.77 35.4322 11.082 35.4322 11.454C35.4322 11.826 35.3062 12.138 35.0542 12.39C34.8022 12.642 34.4962 12.768 34.1362 12.768ZM35.1442 14.082L35.1442 24L33.0922 24L33.0922 14.082H35.1442ZM39.8903 15.522C40.1903 15.018 40.5863 14.628 41.0783 14.352C41.5823 14.064 42.1763 13.92 42.8603 13.92V16.044H42.3383C41.5343 16.044 40.9223 16.248 40.5023 16.656C40.0943 17.064 39.8903 17.772 39.8903 18.78V24H37.8383V14.082L39.8903 14.082V15.522ZM44.0625 18.996C44.0625 18 44.2665 17.118 44.6745 16.35C45.0945 15.582 45.6585 14.988 46.3665 14.568C47.0865 14.136 47.8845 13.92 48.7605 13.92C49.4085 13.92 50.0445 14.064 50.6685 14.352C51.3045 14.628 51.8085 15 52.1805 15.468V10.68H54.2505L54.2505 24H52.1805V22.506C51.8445 22.986 51.3765 23.382 50.7765 23.694C50.1885 24.006 49.5105 24.162 48.7425 24.162C47.8785 24.162 47.0865 23.946 46.3665 23.514C45.6585 23.07 45.0945 22.458 44.6745 21.678C44.2665 20.886 44.0625 19.992 44.0625 18.996ZM52.1805 19.032C52.1805 18.348 52.0365 17.754 51.7485 17.25C51.4725 16.746 51.1065 16.362 50.6505 16.098C50.1945 15.834 49.7025 15.702 49.1745 15.702C48.6465 15.702 48.1545 15.834 47.6985 16.098C47.2425 16.35 46.8705 16.728 46.5825 17.232C46.3065 17.724 46.1685 18.312 46.1685 18.996C46.1685 19.68 46.3065 20.28 46.5825 20.796C46.8705 21.312 47.2425 21.708 47.6985 21.984C48.1665 22.248 48.6585 22.38 49.1745 22.38C49.7025 22.38 50.1945 22.248 50.6505 21.984C51.1065 21.72 51.4725 21.336 51.7485 20.832C52.0365 20.316 52.1805 19.716 52.1805 19.032Z" fill="#22543D"/>
</svg>
