<svg width="97" height="36" viewBox="0 0 97 36" fill="none" xmlns="http://www.w3.org/2000/svg">
<rect width="97" height="36" rx="18" fill="#E9D8FD"/>
<path d="M28.1046 17.574C28.7766 17.694 29.3466 18.048 29.8146 18.636C30.2826 19.224 30.5166 19.89 30.5166 20.634C30.5166 21.27 30.3486 21.846 30.0126 22.362C29.6886 22.866 29.2146 23.268 28.5906 23.568C27.9666 23.856 27.2406 24 26.4126 24H21.4086L21.4086 11.49L26.1786 11.49C27.0306 11.49 27.7626 11.634 28.3746 11.922C28.9866 12.21 29.4486 12.6 29.7606 13.092C30.0726 13.572 30.2286 14.112 30.2286 14.712C30.2286 15.432 30.0366 16.032 29.6526 16.512C29.2686 16.992 28.7526 17.346 28.1046 17.574ZM23.4606 16.746H25.9986C26.6706 16.746 27.1926 16.596 27.5646 16.296C27.9486 15.984 28.1406 15.54 28.1406 14.964C28.1406 14.4 27.9486 13.962 27.5646 13.65C27.1926 13.326 26.6706 13.164 25.9986 13.164L23.4606 13.164L23.4606 16.746ZM26.2326 22.326C26.9286 22.326 27.4746 22.158 27.8706 21.822C28.2666 21.486 28.4646 21.018 28.4646 20.418C28.4646 19.806 28.2546 19.32 27.8346 18.96C27.4146 18.6 26.8566 18.42 26.1606 18.42H23.4606V22.326H26.2326ZM41.7285 14.082V24H39.6765V22.83C39.3525 23.238 38.9265 23.562 38.3985 23.802C37.8825 24.03 37.3305 24.144 36.7425 24.144C35.9625 24.144 35.2605 23.982 34.6365 23.658C34.0245 23.334 33.5385 22.854 33.1785 22.218C32.8305 21.582 32.6565 20.814 32.6565 19.914V14.082H34.6905V19.608C34.6905 20.496 34.9125 21.18 35.3565 21.66C35.8005 22.128 36.4065 22.362 37.1745 22.362C37.9425 22.362 38.5485 22.128 38.9925 21.66C39.4485 21.18 39.6765 20.496 39.6765 19.608V14.082H41.7285ZM49.4399 13.92C50.2199 13.92 50.9159 14.082 51.5279 14.406C52.1519 14.73 52.6379 15.21 52.9859 15.846C53.3339 16.482 53.5079 17.25 53.5079 18.15L53.5079 24H51.4739V18.456C51.4739 17.568 51.2519 16.89 50.8079 16.422C50.3639 15.942 49.7579 15.702 48.9899 15.702C48.2219 15.702 47.6099 15.942 47.1539 16.422C46.7099 16.89 46.4879 17.568 46.4879 18.456V24H44.4359V14.082L46.4879 14.082V15.216C46.8239 14.808 47.2499 14.49 47.7659 14.262C48.2939 14.034 48.8519 13.92 49.4399 13.92ZM61.1294 13.92C61.9094 13.92 62.6054 14.082 63.2174 14.406C63.8414 14.73 64.3274 15.21 64.6754 15.846C65.0234 16.482 65.1974 17.25 65.1974 18.15V24H63.1634L63.1634 18.456C63.1634 17.568 62.9414 16.89 62.4974 16.422C62.0534 15.942 61.4474 15.702 60.6794 15.702C59.9114 15.702 59.2994 15.942 58.8434 16.422C58.3994 16.89 58.1774 17.568 58.1774 18.456L58.1774 24H56.1254L56.1254 14.082L58.1774 14.082V15.216C58.5134 14.808 58.9394 14.49 59.4554 14.262C59.9834 14.034 60.5414 13.92 61.1294 13.92ZM76.7428 14.082L70.6588 28.662L68.5348 28.662L70.5508 23.838L66.6448 14.082L68.9308 14.082L71.7208 21.642L74.6188 14.082H76.7428Z" fill="#44337A"/>
</svg>
