<svg width="73" height="36" viewBox="0 0 73 36" fill="none" xmlns="http://www.w3.org/2000/svg">
<rect width="73" height="36" rx="18" fill="#FBD38D"/>
<path d="M20.7568 17.718C20.7568 16.494 21.0388 15.396 21.6028 14.424C22.1788 13.452 22.9528 12.696 23.9248 12.156C24.9088 11.604 25.9828 11.328 27.1468 11.328C28.4788 11.328 29.6608 11.658 30.6928 12.318C31.7368 12.966 32.4928 13.89 32.9608 15.09H30.4948C30.1708 14.43 29.7208 13.938 29.1448 13.614C28.5688 13.29 27.9028 13.128 27.1468 13.128C26.3188 13.128 25.5808 13.314 24.9328 13.686C24.2848 14.058 23.7748 14.592 23.4028 15.288C23.0428 15.984 22.8628 16.794 22.8628 17.718C22.8628 18.642 23.0428 19.452 23.4028 20.148C23.7748 20.844 24.2848 21.384 24.9328 21.768C25.5808 22.14 26.3188 22.326 27.1468 22.326C27.9028 22.326 28.5688 22.164 29.1448 21.84C29.7208 21.516 30.1708 21.024 30.4948 20.364H32.9608C32.4928 21.564 31.7368 22.488 30.6928 23.136C29.6608 23.784 28.4788 24.108 27.1468 24.108C25.9708 24.108 24.8968 23.838 23.9248 23.298C22.9528 22.746 22.1788 21.984 21.6028 21.012C21.0388 20.04 20.7568 18.942 20.7568 17.718ZM34.6787 18.996C34.6787 18 34.8827 17.118 35.2907 16.35C35.7107 15.582 36.2747 14.988 36.9827 14.568C37.7027 14.136 38.4947 13.92 39.3587 13.92C40.1387 13.92 40.8167 14.076 41.3927 14.388C41.9807 14.688 42.4487 15.066 42.7967 15.522V14.082H44.8667V24H42.7967V22.524C42.4487 22.992 41.9747 23.382 41.3747 23.694C40.7747 24.006 40.0907 24.162 39.3227 24.162C38.4707 24.162 37.6907 23.946 36.9827 23.514C36.2747 23.07 35.7107 22.458 35.2907 21.678C34.8827 20.886 34.6787 19.992 34.6787 18.996ZM42.7967 19.032C42.7967 18.348 42.6527 17.754 42.3647 17.25C42.0887 16.746 41.7227 16.362 41.2667 16.098C40.8107 15.834 40.3187 15.702 39.7907 15.702C39.2627 15.702 38.7707 15.834 38.3147 16.098C37.8587 16.35 37.4867 16.728 37.1987 17.232C36.9227 17.724 36.7847 18.312 36.7847 18.996C36.7847 19.68 36.9227 20.28 37.1987 20.796C37.4867 21.312 37.8587 21.708 38.3147 21.984C38.7827 22.248 39.2747 22.38 39.7907 22.38C40.3187 22.38 40.8107 22.248 41.2667 21.984C41.7227 21.72 42.0887 21.336 42.3647 20.832C42.6527 20.316 42.7967 19.716 42.7967 19.032ZM49.9559 15.756V21.246C49.9559 21.618 50.0399 21.888 50.2079 22.056C50.3879 22.212 50.6879 22.29 51.1079 22.29H52.3679V24H50.7479C49.8239 24 49.1159 23.784 48.6239 23.352C48.1319 22.92 47.8859 22.218 47.8859 21.246V15.756H46.7159V14.082H47.8859V11.616L49.9559 11.616V14.082H52.3679V15.756H49.9559Z" fill="#7B341E"/>
</svg>
