<svg width="77" height="36" viewBox="0 0 77 36" fill="none" xmlns="http://www.w3.org/2000/svg">
<rect width="77" height="36" rx="18" fill="#E2E8F0"/>
<path d="M25.7163 11.49C27.0483 11.49 28.2123 11.748 29.2083 12.264C30.2163 12.768 30.9903 13.5 31.5303 14.46C32.0823 15.408 32.3583 16.518 32.3583 17.79C32.3583 19.062 32.0823 20.166 31.5303 21.102C30.9903 22.038 30.2163 22.758 29.2083 23.262C28.2123 23.754 27.0483 24 25.7163 24H21.6303L21.6303 11.49L25.7163 11.49ZM25.7163 22.326C27.1803 22.326 28.3023 21.93 29.0823 21.138C29.8623 20.346 30.2523 19.23 30.2523 17.79C30.2523 16.338 29.8623 15.204 29.0823 14.388C28.3023 13.572 27.1803 13.164 25.7163 13.164L23.6823 13.164L23.6823 22.326H25.7163ZM38.694 24.162C37.758 24.162 36.912 23.952 36.156 23.532C35.4 23.1 34.806 22.5 34.374 21.732C33.942 20.952 33.726 20.052 33.726 19.032C33.726 18.024 33.948 17.13 34.392 16.35C34.836 15.57 35.442 14.97 36.21 14.55C36.978 14.13 37.836 13.92 38.784 13.92C39.732 13.92 40.59 14.13 41.358 14.55C42.126 14.97 42.732 15.57 43.176 16.35C43.62 17.13 43.842 18.024 43.842 19.032C43.842 20.04 43.614 20.934 43.158 21.714C42.702 22.494 42.078 23.1 41.286 23.532C40.506 23.952 39.642 24.162 38.694 24.162ZM38.694 22.38C39.222 22.38 39.714 22.254 40.17 22.002C40.638 21.75 41.016 21.372 41.304 20.868C41.592 20.364 41.736 19.752 41.736 19.032C41.736 18.312 41.598 17.706 41.322 17.214C41.046 16.71 40.68 16.332 40.224 16.08C39.768 15.828 39.276 15.702 38.748 15.702C38.22 15.702 37.728 15.828 37.272 16.08C36.828 16.332 36.474 16.71 36.21 17.214C35.946 17.706 35.814 18.312 35.814 19.032C35.814 20.1 36.084 20.928 36.624 21.516C37.176 22.092 37.866 22.38 38.694 22.38ZM49.8665 13.92C50.6345 13.92 51.3125 14.076 51.9005 14.388C52.5005 14.688 52.9685 15.066 53.3045 15.522V14.082H55.3745L55.3745 24.162C55.3745 25.074 55.1825 25.884 54.7985 26.592C54.4145 27.312 53.8565 27.876 53.1245 28.284C52.4045 28.692 51.5405 28.896 50.5325 28.896C49.1885 28.896 48.0725 28.578 47.1845 27.942C46.2965 27.318 45.7925 26.466 45.6725 25.386L47.7065 25.386C47.8625 25.902 48.1925 26.316 48.6965 26.628C49.2125 26.952 49.8245 27.114 50.5325 27.114C51.3605 27.114 52.0265 26.862 52.5305 26.358C53.0465 25.854 53.3045 25.122 53.3045 24.162V22.506C52.9565 22.974 52.4825 23.37 51.8825 23.694C51.2945 24.006 50.6225 24.162 49.8665 24.162C49.0025 24.162 48.2105 23.946 47.4905 23.514C46.7825 23.07 46.2185 22.458 45.7985 21.678C45.3905 20.886 45.1865 19.992 45.1865 18.996C45.1865 18 45.3905 17.118 45.7985 16.35C46.2185 15.582 46.7825 14.988 47.4905 14.568C48.2105 14.136 49.0025 13.92 49.8665 13.92ZM53.3045 19.032C53.3045 18.348 53.1605 17.754 52.8725 17.25C52.5965 16.746 52.2305 16.362 51.7745 16.098C51.3185 15.834 50.8265 15.702 50.2985 15.702C49.7705 15.702 49.2785 15.834 48.8225 16.098C48.3665 16.35 47.9945 16.728 47.7065 17.232C47.4305 17.724 47.2925 18.312 47.2925 18.996C47.2925 19.68 47.4305 20.28 47.7065 20.796C47.9945 21.312 48.3665 21.708 48.8225 21.984C49.2905 22.248 49.7825 22.38 50.2985 22.38C50.8265 22.38 51.3185 22.248 51.7745 21.984C52.2305 21.72 52.5965 21.336 52.8725 20.832C53.1605 20.316 53.3045 19.716 53.3045 19.032Z" fill="#A0AEC0"/>
</svg>
