<svg width="161" height="36" viewBox="0 0 161 36" fill="none" xmlns="http://www.w3.org/2000/svg">
<rect width="161" height="36" rx="18" fill="#E2E8F0"/>
<path d="M25.6878 24.126C24.8478 24.126 24.0918 23.982 23.4198 23.694C22.7478 23.394 22.2198 22.974 21.8358 22.434C21.4518 21.894 21.2598 21.264 21.2598 20.544H23.4558C23.5038 21.084 23.7138 21.528 24.0858 21.876C24.4698 22.224 25.0038 22.398 25.6878 22.398C26.3958 22.398 26.9478 22.23 27.3438 21.894C27.7398 21.546 27.9378 21.102 27.9378 20.562C27.9378 20.142 27.8118 19.8 27.5598 19.536C27.3198 19.272 27.0138 19.068 26.6418 18.924C26.2818 18.78 25.7778 18.624 25.1298 18.456C24.3138 18.24 23.6478 18.024 23.1318 17.808C22.6278 17.58 22.1958 17.232 21.8358 16.764C21.4758 16.296 21.2958 15.672 21.2958 14.892C21.2958 14.172 21.4758 13.542 21.8358 13.002C22.1958 12.462 22.6998 12.048 23.3478 11.76C23.9958 11.472 24.7458 11.328 25.5978 11.328C26.8098 11.328 27.7998 11.634 28.5678 12.246C29.3478 12.846 29.7798 13.674 29.8638 14.73H27.5958C27.5598 14.274 27.3438 13.884 26.9478 13.56C26.5518 13.236 26.0298 13.074 25.3818 13.074C24.7938 13.074 24.3138 13.224 23.9418 13.524C23.5698 13.824 23.3838 14.256 23.3838 14.82C23.3838 15.204 23.4978 15.522 23.7258 15.774C23.9658 16.014 24.2658 16.206 24.6258 16.35C24.9858 16.494 25.4778 16.65 26.1018 16.818C26.9298 17.046 27.6018 17.274 28.1178 17.502C28.6458 17.73 29.0898 18.084 29.4498 18.564C29.8218 19.032 30.0078 19.662 30.0078 20.454C30.0078 21.09 29.8338 21.69 29.4858 22.254C29.1498 22.818 28.6518 23.274 27.9918 23.622C27.3438 23.958 26.5758 24.126 25.6878 24.126ZM44.4351 13.92C45.2151 13.92 45.9111 14.082 46.5231 14.406C47.1471 14.73 47.6331 15.21 47.9811 15.846C48.3411 16.482 48.5211 17.25 48.5211 18.15V24H46.4871V18.456C46.4871 17.568 46.2651 16.89 45.8211 16.422C45.3771 15.942 44.7711 15.702 44.0031 15.702C43.2351 15.702 42.6231 15.942 42.1671 16.422C41.7231 16.89 41.5011 17.568 41.5011 18.456V24H39.4671V18.456C39.4671 17.568 39.2451 16.89 38.8011 16.422C38.3571 15.942 37.7511 15.702 36.9831 15.702C36.2151 15.702 35.6031 15.942 35.1471 16.422C34.7031 16.89 34.4811 17.568 34.4811 18.456L34.4811 24L32.4291 24L32.4291 14.082H34.4811V15.216C34.8171 14.808 35.2431 14.49 35.7591 14.262C36.2751 14.034 36.8271 13.92 37.4151 13.92C38.2071 13.92 38.9151 14.088 39.5391 14.424C40.1631 14.76 40.6431 15.246 40.9791 15.882C41.2791 15.282 41.7471 14.808 42.3831 14.46C43.0191 14.1 43.7031 13.92 44.4351 13.92ZM50.4482 18.996C50.4482 18 50.6522 17.118 51.0602 16.35C51.4802 15.582 52.0442 14.988 52.7522 14.568C53.4722 14.136 54.2642 13.92 55.1282 13.92C55.9082 13.92 56.5862 14.076 57.1622 14.388C57.7502 14.688 58.2182 15.066 58.5662 15.522V14.082L60.6362 14.082L60.6362 24H58.5662V22.524C58.2182 22.992 57.7442 23.382 57.1442 23.694C56.5442 24.006 55.8602 24.162 55.0922 24.162C54.2402 24.162 53.4602 23.946 52.7522 23.514C52.0442 23.07 51.4802 22.458 51.0602 21.678C50.6522 20.886 50.4482 19.992 50.4482 18.996ZM58.5662 19.032C58.5662 18.348 58.4222 17.754 58.1342 17.25C57.8582 16.746 57.4922 16.362 57.0362 16.098C56.5802 15.834 56.0882 15.702 55.5602 15.702C55.0322 15.702 54.5402 15.834 54.0842 16.098C53.6282 16.35 53.2562 16.728 52.9682 17.232C52.6922 17.724 52.5542 18.312 52.5542 18.996C52.5542 19.68 52.6922 20.28 52.9682 20.796C53.2562 21.312 53.6282 21.708 54.0842 21.984C54.5522 22.248 55.0442 22.38 55.5602 22.38C56.0882 22.38 56.5802 22.248 57.0362 21.984C57.4922 21.72 57.8582 21.336 58.1342 20.832C58.4222 20.316 58.5662 19.716 58.5662 19.032ZM65.3834 10.68V24H63.3314L63.3314 10.68H65.3834ZM70.1295 10.68V24H68.0775V10.68H70.1295ZM85.0414 21.444H79.8034L78.9034 24L76.7614 24L81.2434 11.472L83.6194 11.472L88.1014 24H85.9414L85.0414 21.444ZM84.4654 19.77L82.4314 13.956L80.3794 19.77H84.4654ZM95.0542 13.92C95.8342 13.92 96.5302 14.082 97.1422 14.406C97.7662 14.73 98.2522 15.21 98.6002 15.846C98.9482 16.482 99.1222 17.25 99.1222 18.15V24H97.0882V18.456C97.0882 17.568 96.8662 16.89 96.4222 16.422C95.9782 15.942 95.3722 15.702 94.6042 15.702C93.8362 15.702 93.2242 15.942 92.7682 16.422C92.3242 16.89 92.1022 17.568 92.1022 18.456V24H90.0502V14.082L92.1022 14.082V15.216C92.4382 14.808 92.8642 14.49 93.3802 14.262C93.9082 14.034 94.4662 13.92 95.0542 13.92ZM102.784 12.768C102.412 12.768 102.1 12.642 101.848 12.39C101.596 12.138 101.47 11.826 101.47 11.454C101.47 11.082 101.596 10.77 101.848 10.518C102.1 10.266 102.412 10.14 102.784 10.14C103.144 10.14 103.45 10.266 103.702 10.518C103.954 10.77 104.08 11.082 104.08 11.454C104.08 11.826 103.954 12.138 103.702 12.39C103.45 12.642 103.144 12.768 102.784 12.768ZM103.792 14.082V24H101.74V14.082H103.792ZM118.492 13.92C119.272 13.92 119.968 14.082 120.58 14.406C121.204 14.73 121.69 15.21 122.038 15.846C122.398 16.482 122.578 17.25 122.578 18.15V24L120.544 24V18.456C120.544 17.568 120.322 16.89 119.878 16.422C119.434 15.942 118.828 15.702 118.06 15.702C117.292 15.702 116.68 15.942 116.224 16.422C115.78 16.89 115.558 17.568 115.558 18.456V24H113.524V18.456C113.524 17.568 113.302 16.89 112.858 16.422C112.414 15.942 111.808 15.702 111.04 15.702C110.272 15.702 109.66 15.942 109.204 16.422C108.76 16.89 108.538 17.568 108.538 18.456V24H106.486V14.082H108.538V15.216C108.874 14.808 109.3 14.49 109.816 14.262C110.332 14.034 110.884 13.92 111.472 13.92C112.264 13.92 112.972 14.088 113.596 14.424C114.22 14.76 114.7 15.246 115.036 15.882C115.336 15.282 115.804 14.808 116.44 14.46C117.076 14.1 117.76 13.92 118.492 13.92ZM124.505 18.996C124.505 18 124.709 17.118 125.117 16.35C125.537 15.582 126.101 14.988 126.809 14.568C127.529 14.136 128.321 13.92 129.185 13.92C129.965 13.92 130.643 14.076 131.219 14.388C131.807 14.688 132.275 15.066 132.623 15.522V14.082L134.693 14.082V24H132.623V22.524C132.275 22.992 131.801 23.382 131.201 23.694C130.601 24.006 129.917 24.162 129.149 24.162C128.297 24.162 127.517 23.946 126.809 23.514C126.101 23.07 125.537 22.458 125.117 21.678C124.709 20.886 124.505 19.992 124.505 18.996ZM132.623 19.032C132.623 18.348 132.479 17.754 132.191 17.25C131.915 16.746 131.549 16.362 131.093 16.098C130.637 15.834 130.145 15.702 129.617 15.702C129.089 15.702 128.597 15.834 128.141 16.098C127.685 16.35 127.313 16.728 127.025 17.232C126.749 17.724 126.611 18.312 126.611 18.996C126.611 19.68 126.749 20.28 127.025 20.796C127.313 21.312 127.685 21.708 128.141 21.984C128.609 22.248 129.101 22.38 129.617 22.38C130.145 22.38 130.637 22.248 131.093 21.984C131.549 21.72 131.915 21.336 132.191 20.832C132.479 20.316 132.623 19.716 132.623 19.032ZM139.44 10.68V24L137.388 24V10.68L139.44 10.68Z" fill="#A0AEC0"/>
</svg>
