<svg width="40" height="40" viewBox="0 0 40 40" fill="none" xmlns="http://www.w3.org/2000/svg">
<rect width="40" height="40" rx="6" fill="#B794F4"/>
<path d="M22.4836 17.1628L5.26318 8.9967V7.36841L23.051 15.8799L22.4836 17.1628Z" fill="#FAF5FF"/>
<path d="M16.5871 26.1431H24.1118V32.8536C24.1118 33.9638 25 34.852 26.1102 34.852C27.2204 34.852 28.1085 33.9638 28.1085 32.8536V26.1431C28.7006 26.1431 28.7746 25.7483 28.7746 25.3043V20.296L22.4588 17.2122H9.08713L7.36016 16.2253C6.8174 15.9046 6.10194 16.102 5.78121 16.6694C5.46049 17.2122 5.65786 17.9276 6.22529 18.2483L8.93911 19.8026V32.8783C8.93911 33.9885 9.82726 34.8766 10.9375 34.8766C12.0477 34.8766 12.9358 33.9885 12.9358 32.8783V27.7714L16.5378 33.8404C17.1052 34.7779 18.3141 35.0987 19.2763 34.5312C20.2138 33.9638 20.5098 32.7303 19.9671 31.7928L16.5871 26.1431Z" fill="#FAF5FF"/>
<path d="M23.0757 15.8553L28.75 18.5444V17.4835H33.3635L35.0411 13.8322L23.0757 8.13321V15.8553Z" fill="#FAF5FF"/>
</svg>
